<mxfile host="app.diagrams.net" modified="2024-01-26T11:39:23.258Z" agent="Mozilla/5.0 (Macintosh; Intel Mac OS X 10_15_7) AppleWebKit/537.36 (KHTML, like Gecko) Chrome/111.0.0.0 Safari/537.36" etag="hwZrztrYsAkKTwq92kTm" version="22.1.18" type="device">
  <diagram name="PÃ¡gina-1" id="0Iah_IHl7PIJABuD3S3s">
    <mxGraphModel dx="1508" dy="796" grid="0" gridSize="10" guides="1" tooltips="1" connect="1" arrows="1" fold="1" page="0" pageScale="1" pageWidth="2800" pageHeight="1169" math="0" shadow="0">
      <root>
        <mxCell id="0" />
        <mxCell id="1" parent="0" />
        <mxCell id="I3rq7wT1LuyZRPo9B95B-31" value="" style="rounded=0;whiteSpace=wrap;html=1;align=center;verticalAlign=middle;fontFamily=Courier New;fontSize=12;fontColor=default;fillColor=none;gradientColor=none;strokeWidth=5;" vertex="1" parent="1">
          <mxGeometry x="-140" y="20" width="860" height="430" as="geometry" />
        </mxCell>
        <mxCell id="I3rq7wT1LuyZRPo9B95B-12" style="edgeStyle=orthogonalEdgeStyle;rounded=0;orthogonalLoop=1;jettySize=auto;html=1;exitX=0.5;exitY=1;exitDx=0;exitDy=0;entryX=0.5;entryY=0;entryDx=0;entryDy=0;fontFamily=Courier New;fontSize=12;fontColor=default;" edge="1" parent="1" source="I3rq7wT1LuyZRPo9B95B-1" target="I3rq7wT1LuyZRPo9B95B-8">
          <mxGeometry relative="1" as="geometry" />
        </mxCell>
        <mxCell id="I3rq7wT1LuyZRPo9B95B-1" value="Via" style="rounded=0;whiteSpace=wrap;html=1;fillColor=#dae8fc;strokeColor=#6c8ebf;" vertex="1" parent="1">
          <mxGeometry x="40" y="120" width="120" height="30" as="geometry" />
        </mxCell>
        <mxCell id="I3rq7wT1LuyZRPo9B95B-13" style="edgeStyle=orthogonalEdgeStyle;rounded=0;orthogonalLoop=1;jettySize=auto;html=1;exitX=0.5;exitY=1;exitDx=0;exitDy=0;entryX=0.5;entryY=0;entryDx=0;entryDy=0;fontFamily=Courier New;fontSize=12;fontColor=default;" edge="1" parent="1" source="I3rq7wT1LuyZRPo9B95B-2" target="I3rq7wT1LuyZRPo9B95B-9">
          <mxGeometry relative="1" as="geometry" />
        </mxCell>
        <mxCell id="I3rq7wT1LuyZRPo9B95B-2" value="Semaforo" style="rounded=0;whiteSpace=wrap;html=1;fillColor=#dae8fc;strokeColor=#6c8ebf;" vertex="1" parent="1">
          <mxGeometry x="240" y="120" width="120" height="30" as="geometry" />
        </mxCell>
        <mxCell id="I3rq7wT1LuyZRPo9B95B-14" style="edgeStyle=orthogonalEdgeStyle;rounded=0;orthogonalLoop=1;jettySize=auto;html=1;exitX=0.5;exitY=1;exitDx=0;exitDy=0;entryX=0.5;entryY=0;entryDx=0;entryDy=0;fontFamily=Courier New;fontSize=12;fontColor=default;" edge="1" parent="1" source="I3rq7wT1LuyZRPo9B95B-3" target="I3rq7wT1LuyZRPo9B95B-10">
          <mxGeometry relative="1" as="geometry" />
        </mxCell>
        <mxCell id="I3rq7wT1LuyZRPo9B95B-3" value="Sensor" style="rounded=0;whiteSpace=wrap;html=1;fillColor=#dae8fc;strokeColor=#6c8ebf;" vertex="1" parent="1">
          <mxGeometry x="440" y="120" width="120" height="30" as="geometry" />
        </mxCell>
        <mxCell id="I3rq7wT1LuyZRPo9B95B-5" value="&lt;b&gt;llegando vehiculo&lt;/b&gt;" style="text;html=1;strokeColor=none;fillColor=none;align=center;verticalAlign=middle;whiteSpace=wrap;rounded=0;fontFamily=Courier New;" vertex="1" parent="1">
          <mxGeometry x="30" y="80" width="150" height="30" as="geometry" />
        </mxCell>
        <mxCell id="I3rq7wT1LuyZRPo9B95B-6" value="&lt;b&gt;llegando vehiculo&lt;/b&gt;" style="text;html=1;strokeColor=none;fillColor=none;align=center;verticalAlign=middle;whiteSpace=wrap;rounded=0;fontFamily=Courier New;" vertex="1" parent="1">
          <mxGeometry x="230" y="80" width="150" height="30" as="geometry" />
        </mxCell>
        <mxCell id="I3rq7wT1LuyZRPo9B95B-7" value="&lt;b&gt;llegando vehiculo&lt;/b&gt;" style="text;html=1;strokeColor=none;fillColor=none;align=center;verticalAlign=middle;whiteSpace=wrap;rounded=0;fontFamily=Courier New;" vertex="1" parent="1">
          <mxGeometry x="430" y="80" width="150" height="30" as="geometry" />
        </mxCell>
        <mxCell id="I3rq7wT1LuyZRPo9B95B-8" value="---" style="rounded=0;whiteSpace=wrap;html=1;fillColor=#d5e8d4;strokeColor=#82b366;" vertex="1" parent="1">
          <mxGeometry x="40" y="190" width="120" height="30" as="geometry" />
        </mxCell>
        <mxCell id="I3rq7wT1LuyZRPo9B95B-17" style="edgeStyle=orthogonalEdgeStyle;rounded=0;orthogonalLoop=1;jettySize=auto;html=1;exitX=0.5;exitY=1;exitDx=0;exitDy=0;entryX=0.5;entryY=0;entryDx=0;entryDy=0;fontFamily=Courier New;fontSize=12;fontColor=default;" edge="1" parent="1" source="I3rq7wT1LuyZRPo9B95B-9" target="I3rq7wT1LuyZRPo9B95B-16">
          <mxGeometry relative="1" as="geometry" />
        </mxCell>
        <mxCell id="I3rq7wT1LuyZRPo9B95B-22" style="edgeStyle=orthogonalEdgeStyle;rounded=0;orthogonalLoop=1;jettySize=auto;html=1;exitX=0.5;exitY=1;exitDx=0;exitDy=0;entryX=0.75;entryY=0;entryDx=0;entryDy=0;fontFamily=Courier New;fontSize=12;fontColor=default;" edge="1" parent="1" source="I3rq7wT1LuyZRPo9B95B-9" target="I3rq7wT1LuyZRPo9B95B-20">
          <mxGeometry relative="1" as="geometry" />
        </mxCell>
        <mxCell id="I3rq7wT1LuyZRPo9B95B-9" value="&lt;font face=&quot;Courier New&quot;&gt;&lt;b&gt;sem.id = b&lt;/b&gt;&lt;/font&gt;" style="rounded=0;whiteSpace=wrap;html=1;fillColor=#d5e8d4;strokeColor=#82b366;" vertex="1" parent="1">
          <mxGeometry x="240" y="190" width="120" height="30" as="geometry" />
        </mxCell>
        <mxCell id="I3rq7wT1LuyZRPo9B95B-18" style="edgeStyle=orthogonalEdgeStyle;rounded=0;orthogonalLoop=1;jettySize=auto;html=1;exitX=0.5;exitY=1;exitDx=0;exitDy=0;fontFamily=Courier New;fontSize=12;fontColor=default;" edge="1" parent="1" source="I3rq7wT1LuyZRPo9B95B-10">
          <mxGeometry relative="1" as="geometry">
            <mxPoint x="400" y="260" as="targetPoint" />
          </mxGeometry>
        </mxCell>
        <mxCell id="I3rq7wT1LuyZRPo9B95B-10" value="&lt;font face=&quot;Courier New&quot;&gt;&lt;b&gt;sen.Cel = 1&lt;br&gt;&lt;/b&gt;&lt;/font&gt;" style="rounded=0;whiteSpace=wrap;html=1;fillColor=#d5e8d4;strokeColor=#82b366;" vertex="1" parent="1">
          <mxGeometry x="440" y="190" width="120" height="30" as="geometry" />
        </mxCell>
        <mxCell id="I3rq7wT1LuyZRPo9B95B-15" value="&lt;b&gt;Rx(1, b, c, d)&lt;/b&gt;" style="text;html=1;strokeColor=none;fillColor=none;align=center;verticalAlign=middle;whiteSpace=wrap;rounded=0;fontFamily=Courier New;" vertex="1" parent="1">
          <mxGeometry x="220" y="40" width="150" height="30" as="geometry" />
        </mxCell>
        <mxCell id="I3rq7wT1LuyZRPo9B95B-26" style="edgeStyle=orthogonalEdgeStyle;rounded=0;orthogonalLoop=1;jettySize=auto;html=1;exitX=0.5;exitY=1;exitDx=0;exitDy=0;fontFamily=Courier New;fontSize=12;fontColor=default;" edge="1" parent="1" source="I3rq7wT1LuyZRPo9B95B-16" target="I3rq7wT1LuyZRPo9B95B-24">
          <mxGeometry relative="1" as="geometry" />
        </mxCell>
        <mxCell id="I3rq7wT1LuyZRPo9B95B-16" value="&lt;b style=&quot;border-color: var(--border-color);&quot;&gt;sem.id =&amp;nbsp;&lt;/b&gt;&lt;b&gt;sen.idSem&lt;/b&gt;" style="rounded=0;whiteSpace=wrap;html=1;align=center;verticalAlign=middle;fontFamily=Courier New;fontSize=12;fillColor=#ffe6cc;strokeColor=#d79b00;" vertex="1" parent="1">
          <mxGeometry x="320" y="260" width="150" height="30" as="geometry" />
        </mxCell>
        <mxCell id="I3rq7wT1LuyZRPo9B95B-20" value="&lt;b&gt;v.id = sem.idVia&lt;/b&gt;" style="rounded=0;whiteSpace=wrap;html=1;align=center;verticalAlign=middle;fontFamily=Courier New;fontSize=12;fillColor=#ffe6cc;strokeColor=#d79b00;" vertex="1" parent="1">
          <mxGeometry x="90" y="260" width="170" height="30" as="geometry" />
        </mxCell>
        <mxCell id="I3rq7wT1LuyZRPo9B95B-21" style="edgeStyle=orthogonalEdgeStyle;rounded=0;orthogonalLoop=1;jettySize=auto;html=1;exitX=0.5;exitY=1;exitDx=0;exitDy=0;entryX=0.353;entryY=-0.1;entryDx=0;entryDy=0;entryPerimeter=0;fontFamily=Courier New;fontSize=12;fontColor=default;" edge="1" parent="1" source="I3rq7wT1LuyZRPo9B95B-8" target="I3rq7wT1LuyZRPo9B95B-20">
          <mxGeometry relative="1" as="geometry" />
        </mxCell>
        <mxCell id="I3rq7wT1LuyZRPo9B95B-23" value="" style="endArrow=none;dashed=1;html=1;rounded=0;fontFamily=Courier New;fontSize=12;fontColor=default;fillColor=#f8cecc;strokeColor=#b85450;" edge="1" parent="1">
          <mxGeometry width="50" height="50" relative="1" as="geometry">
            <mxPoint x="-120" y="230" as="sourcePoint" />
            <mxPoint x="690" y="230" as="targetPoint" />
          </mxGeometry>
        </mxCell>
        <mxCell id="I3rq7wT1LuyZRPo9B95B-24" value="&lt;b&gt;+Vehiculo(c, sem.id, d, llegando)&lt;br&gt;+-Sensor(estado(activado), matricula(c))&lt;br&gt;-Rx()&lt;br&gt;&lt;/b&gt;" style="rounded=0;whiteSpace=wrap;html=1;align=center;verticalAlign=middle;fontFamily=Courier New;fontSize=12;fillColor=#e1d5e7;strokeColor=#9673a6;" vertex="1" parent="1">
          <mxGeometry x="122.5" y="360" width="355" height="60" as="geometry" />
        </mxCell>
        <mxCell id="I3rq7wT1LuyZRPo9B95B-25" style="edgeStyle=orthogonalEdgeStyle;rounded=0;orthogonalLoop=1;jettySize=auto;html=1;exitX=0.5;exitY=1;exitDx=0;exitDy=0;entryX=0.444;entryY=0;entryDx=0;entryDy=0;entryPerimeter=0;fontFamily=Courier New;fontSize=12;fontColor=default;" edge="1" parent="1" source="I3rq7wT1LuyZRPo9B95B-20" target="I3rq7wT1LuyZRPo9B95B-24">
          <mxGeometry relative="1" as="geometry" />
        </mxCell>
        <mxCell id="I3rq7wT1LuyZRPo9B95B-27" value="&lt;font face=&quot;Verdana&quot;&gt;Red de Enlace&lt;/font&gt;" style="text;html=1;strokeColor=none;fillColor=none;align=center;verticalAlign=middle;whiteSpace=wrap;rounded=0;fontSize=12;fontFamily=Courier New;fontColor=default;" vertex="1" parent="1">
          <mxGeometry x="-150" y="250" width="190" height="30" as="geometry" />
        </mxCell>
        <mxCell id="I3rq7wT1LuyZRPo9B95B-28" value="&lt;font face=&quot;Verdana&quot;&gt;Red de Patrones&lt;/font&gt;" style="text;html=1;strokeColor=none;fillColor=none;align=center;verticalAlign=middle;whiteSpace=wrap;rounded=0;fontSize=12;fontFamily=Courier New;fontColor=default;" vertex="1" parent="1">
          <mxGeometry x="-150" y="170" width="190" height="30" as="geometry" />
        </mxCell>
        <mxCell id="I3rq7wT1LuyZRPo9B95B-32" value="" style="rounded=0;whiteSpace=wrap;html=1;align=center;verticalAlign=middle;fontFamily=Courier New;fontSize=12;fontColor=default;fillColor=none;gradientColor=none;strokeWidth=5;" vertex="1" parent="1">
          <mxGeometry x="21" y="524" width="620" height="430" as="geometry" />
        </mxCell>
        <mxCell id="I3rq7wT1LuyZRPo9B95B-33" style="edgeStyle=orthogonalEdgeStyle;rounded=0;orthogonalLoop=1;jettySize=auto;html=1;exitX=0.5;exitY=1;exitDx=0;exitDy=0;entryX=0.5;entryY=0;entryDx=0;entryDy=0;fontFamily=Courier New;fontSize=12;fontColor=default;" edge="1" parent="1" source="I3rq7wT1LuyZRPo9B95B-34" target="I3rq7wT1LuyZRPo9B95B-42">
          <mxGeometry relative="1" as="geometry" />
        </mxCell>
        <mxCell id="I3rq7wT1LuyZRPo9B95B-34" value="Via" style="rounded=0;whiteSpace=wrap;html=1;fillColor=#dae8fc;strokeColor=#6c8ebf;" vertex="1" parent="1">
          <mxGeometry x="201" y="624" width="120" height="30" as="geometry" />
        </mxCell>
        <mxCell id="I3rq7wT1LuyZRPo9B95B-35" style="edgeStyle=orthogonalEdgeStyle;rounded=0;orthogonalLoop=1;jettySize=auto;html=1;exitX=0.5;exitY=1;exitDx=0;exitDy=0;entryX=0.5;entryY=0;entryDx=0;entryDy=0;fontFamily=Courier New;fontSize=12;fontColor=default;" edge="1" parent="1" source="I3rq7wT1LuyZRPo9B95B-36" target="I3rq7wT1LuyZRPo9B95B-45">
          <mxGeometry relative="1" as="geometry" />
        </mxCell>
        <mxCell id="I3rq7wT1LuyZRPo9B95B-36" value="Semaforo" style="rounded=0;whiteSpace=wrap;html=1;fillColor=#dae8fc;strokeColor=#6c8ebf;" vertex="1" parent="1">
          <mxGeometry x="401" y="624" width="120" height="30" as="geometry" />
        </mxCell>
        <mxCell id="I3rq7wT1LuyZRPo9B95B-39" value="&lt;b&gt;cambio-color&lt;/b&gt;" style="text;html=1;strokeColor=none;fillColor=none;align=center;verticalAlign=middle;whiteSpace=wrap;rounded=0;fontFamily=Courier New;" vertex="1" parent="1">
          <mxGeometry x="191" y="584" width="150" height="30" as="geometry" />
        </mxCell>
        <mxCell id="I3rq7wT1LuyZRPo9B95B-40" value="&lt;b style=&quot;border-color: var(--border-color);&quot;&gt;cambio-color&lt;/b&gt;" style="text;html=1;strokeColor=none;fillColor=none;align=center;verticalAlign=middle;whiteSpace=wrap;rounded=0;fontFamily=Courier New;" vertex="1" parent="1">
          <mxGeometry x="391" y="584" width="150" height="30" as="geometry" />
        </mxCell>
        <mxCell id="I3rq7wT1LuyZRPo9B95B-42" value="---" style="rounded=0;whiteSpace=wrap;html=1;fillColor=#d5e8d4;strokeColor=#82b366;" vertex="1" parent="1">
          <mxGeometry x="201" y="694" width="120" height="30" as="geometry" />
        </mxCell>
        <mxCell id="I3rq7wT1LuyZRPo9B95B-44" style="edgeStyle=orthogonalEdgeStyle;rounded=0;orthogonalLoop=1;jettySize=auto;html=1;exitX=0.5;exitY=1;exitDx=0;exitDy=0;entryX=0.75;entryY=0;entryDx=0;entryDy=0;fontFamily=Courier New;fontSize=12;fontColor=default;" edge="1" parent="1" source="I3rq7wT1LuyZRPo9B95B-45" target="I3rq7wT1LuyZRPo9B95B-51">
          <mxGeometry relative="1" as="geometry" />
        </mxCell>
        <mxCell id="I3rq7wT1LuyZRPo9B95B-45" value="&lt;font face=&quot;Courier New&quot;&gt;&lt;b&gt;sem.estado = Verde&lt;br&gt;sem.id = s&lt;br&gt;&lt;/b&gt;&lt;/font&gt;" style="rounded=0;whiteSpace=wrap;html=1;fillColor=#d5e8d4;strokeColor=#82b366;" vertex="1" parent="1">
          <mxGeometry x="391" y="694" width="140" height="30" as="geometry" />
        </mxCell>
        <mxCell id="I3rq7wT1LuyZRPo9B95B-48" value="&lt;b&gt;Ry(s, Rojo)&lt;/b&gt;" style="text;html=1;strokeColor=none;fillColor=none;align=center;verticalAlign=middle;whiteSpace=wrap;rounded=0;fontFamily=Courier New;" vertex="1" parent="1">
          <mxGeometry x="301" y="544" width="150" height="30" as="geometry" />
        </mxCell>
        <mxCell id="I3rq7wT1LuyZRPo9B95B-51" value="&lt;b&gt;v.id = sem.idVia&lt;/b&gt;" style="rounded=0;whiteSpace=wrap;html=1;align=center;verticalAlign=middle;fontFamily=Courier New;fontSize=12;fillColor=#ffe6cc;strokeColor=#d79b00;" vertex="1" parent="1">
          <mxGeometry x="251" y="764" width="170" height="30" as="geometry" />
        </mxCell>
        <mxCell id="I3rq7wT1LuyZRPo9B95B-52" style="edgeStyle=orthogonalEdgeStyle;rounded=0;orthogonalLoop=1;jettySize=auto;html=1;exitX=0.5;exitY=1;exitDx=0;exitDy=0;entryX=0.353;entryY=-0.1;entryDx=0;entryDy=0;entryPerimeter=0;fontFamily=Courier New;fontSize=12;fontColor=default;" edge="1" parent="1" source="I3rq7wT1LuyZRPo9B95B-42" target="I3rq7wT1LuyZRPo9B95B-51">
          <mxGeometry relative="1" as="geometry" />
        </mxCell>
        <mxCell id="I3rq7wT1LuyZRPo9B95B-53" value="" style="endArrow=none;dashed=1;html=1;rounded=0;fontFamily=Courier New;fontSize=12;fontColor=default;fillColor=#f8cecc;strokeColor=#b85450;" edge="1" parent="1">
          <mxGeometry width="50" height="50" relative="1" as="geometry">
            <mxPoint x="51" y="734" as="sourcePoint" />
            <mxPoint x="581" y="734" as="targetPoint" />
          </mxGeometry>
        </mxCell>
        <mxCell id="I3rq7wT1LuyZRPo9B95B-54" value="&lt;b&gt;+-Via(numVehiculos(sem.numV + v.numV))&lt;br&gt;+-Semaforo(estado(Rojo), numV(0))&lt;br&gt;- Ry()&lt;br&gt;&lt;/b&gt;" style="rounded=0;whiteSpace=wrap;html=1;align=center;verticalAlign=middle;fontFamily=Courier New;fontSize=12;fillColor=#e1d5e7;strokeColor=#9673a6;" vertex="1" parent="1">
          <mxGeometry x="178" y="864" width="355" height="70" as="geometry" />
        </mxCell>
        <mxCell id="I3rq7wT1LuyZRPo9B95B-55" style="edgeStyle=orthogonalEdgeStyle;rounded=0;orthogonalLoop=1;jettySize=auto;html=1;exitX=0.5;exitY=1;exitDx=0;exitDy=0;entryX=0.444;entryY=0;entryDx=0;entryDy=0;entryPerimeter=0;fontFamily=Courier New;fontSize=12;fontColor=default;" edge="1" parent="1" source="I3rq7wT1LuyZRPo9B95B-51" target="I3rq7wT1LuyZRPo9B95B-54">
          <mxGeometry relative="1" as="geometry" />
        </mxCell>
        <mxCell id="I3rq7wT1LuyZRPo9B95B-56" value="&lt;font face=&quot;Verdana&quot;&gt;Red de Enlace&lt;/font&gt;" style="text;html=1;strokeColor=none;fillColor=none;align=center;verticalAlign=middle;whiteSpace=wrap;rounded=0;fontSize=12;fontFamily=Courier New;fontColor=default;" vertex="1" parent="1">
          <mxGeometry x="11" y="754" width="190" height="30" as="geometry" />
        </mxCell>
        <mxCell id="I3rq7wT1LuyZRPo9B95B-57" value="&lt;font face=&quot;Verdana&quot;&gt;Red de Patrones&lt;/font&gt;" style="text;html=1;strokeColor=none;fillColor=none;align=center;verticalAlign=middle;whiteSpace=wrap;rounded=0;fontSize=12;fontFamily=Courier New;fontColor=default;" vertex="1" parent="1">
          <mxGeometry x="11" y="674" width="190" height="30" as="geometry" />
        </mxCell>
        <mxCell id="I3rq7wT1LuyZRPo9B95B-58" value="" style="rounded=0;whiteSpace=wrap;html=1;align=center;verticalAlign=middle;fontFamily=Courier New;fontSize=12;fontColor=default;fillColor=none;gradientColor=none;strokeWidth=5;" vertex="1" parent="1">
          <mxGeometry x="-94" y="1047" width="860" height="430" as="geometry" />
        </mxCell>
        <mxCell id="I3rq7wT1LuyZRPo9B95B-59" style="edgeStyle=orthogonalEdgeStyle;rounded=0;orthogonalLoop=1;jettySize=auto;html=1;exitX=0.5;exitY=1;exitDx=0;exitDy=0;entryX=0.5;entryY=0;entryDx=0;entryDy=0;fontFamily=Courier New;fontSize=12;fontColor=default;" edge="1" parent="1" source="I3rq7wT1LuyZRPo9B95B-60" target="I3rq7wT1LuyZRPo9B95B-68">
          <mxGeometry relative="1" as="geometry" />
        </mxCell>
        <mxCell id="I3rq7wT1LuyZRPo9B95B-60" value="Via" style="rounded=0;whiteSpace=wrap;html=1;fillColor=#dae8fc;strokeColor=#6c8ebf;" vertex="1" parent="1">
          <mxGeometry x="86" y="1147" width="120" height="30" as="geometry" />
        </mxCell>
        <mxCell id="I3rq7wT1LuyZRPo9B95B-61" style="edgeStyle=orthogonalEdgeStyle;rounded=0;orthogonalLoop=1;jettySize=auto;html=1;exitX=0.5;exitY=1;exitDx=0;exitDy=0;entryX=0.5;entryY=0;entryDx=0;entryDy=0;fontFamily=Courier New;fontSize=12;fontColor=default;" edge="1" parent="1" source="I3rq7wT1LuyZRPo9B95B-62" target="I3rq7wT1LuyZRPo9B95B-71">
          <mxGeometry relative="1" as="geometry" />
        </mxCell>
        <mxCell id="I3rq7wT1LuyZRPo9B95B-62" value="Semaforo" style="rounded=0;whiteSpace=wrap;html=1;fillColor=#dae8fc;strokeColor=#6c8ebf;" vertex="1" parent="1">
          <mxGeometry x="286" y="1147" width="120" height="30" as="geometry" />
        </mxCell>
        <mxCell id="I3rq7wT1LuyZRPo9B95B-63" style="edgeStyle=orthogonalEdgeStyle;rounded=0;orthogonalLoop=1;jettySize=auto;html=1;exitX=0.5;exitY=1;exitDx=0;exitDy=0;entryX=0.5;entryY=0;entryDx=0;entryDy=0;fontFamily=Courier New;fontSize=12;fontColor=default;" edge="1" parent="1" source="I3rq7wT1LuyZRPo9B95B-64" target="I3rq7wT1LuyZRPo9B95B-73">
          <mxGeometry relative="1" as="geometry" />
        </mxCell>
        <mxCell id="I3rq7wT1LuyZRPo9B95B-64" value="Vehiculo" style="rounded=0;whiteSpace=wrap;html=1;fillColor=#dae8fc;strokeColor=#6c8ebf;" vertex="1" parent="1">
          <mxGeometry x="486" y="1147" width="120" height="30" as="geometry" />
        </mxCell>
        <mxCell id="I3rq7wT1LuyZRPo9B95B-65" value="&lt;b&gt;cruzando&lt;/b&gt;" style="text;html=1;strokeColor=none;fillColor=none;align=center;verticalAlign=middle;whiteSpace=wrap;rounded=0;fontFamily=Courier New;" vertex="1" parent="1">
          <mxGeometry x="76" y="1107" width="150" height="30" as="geometry" />
        </mxCell>
        <mxCell id="I3rq7wT1LuyZRPo9B95B-68" value="---" style="rounded=0;whiteSpace=wrap;html=1;fillColor=#d5e8d4;strokeColor=#82b366;" vertex="1" parent="1">
          <mxGeometry x="86" y="1217" width="120" height="30" as="geometry" />
        </mxCell>
        <mxCell id="I3rq7wT1LuyZRPo9B95B-69" style="edgeStyle=orthogonalEdgeStyle;rounded=0;orthogonalLoop=1;jettySize=auto;html=1;exitX=0.5;exitY=1;exitDx=0;exitDy=0;entryX=0.5;entryY=0;entryDx=0;entryDy=0;fontFamily=Courier New;fontSize=12;fontColor=default;" edge="1" parent="1" source="I3rq7wT1LuyZRPo9B95B-71" target="I3rq7wT1LuyZRPo9B95B-76">
          <mxGeometry relative="1" as="geometry" />
        </mxCell>
        <mxCell id="I3rq7wT1LuyZRPo9B95B-70" style="edgeStyle=orthogonalEdgeStyle;rounded=0;orthogonalLoop=1;jettySize=auto;html=1;exitX=0.5;exitY=1;exitDx=0;exitDy=0;entryX=0.75;entryY=0;entryDx=0;entryDy=0;fontFamily=Courier New;fontSize=12;fontColor=default;" edge="1" parent="1" source="I3rq7wT1LuyZRPo9B95B-71" target="I3rq7wT1LuyZRPo9B95B-77">
          <mxGeometry relative="1" as="geometry" />
        </mxCell>
        <mxCell id="I3rq7wT1LuyZRPo9B95B-71" value="&lt;font face=&quot;Courier New&quot;&gt;&lt;b&gt;sem.estado = Verde&lt;/b&gt;&lt;/font&gt;" style="rounded=0;whiteSpace=wrap;html=1;fillColor=#d5e8d4;strokeColor=#82b366;" vertex="1" parent="1">
          <mxGeometry x="271" y="1217" width="150" height="30" as="geometry" />
        </mxCell>
        <mxCell id="I3rq7wT1LuyZRPo9B95B-72" style="edgeStyle=orthogonalEdgeStyle;rounded=0;orthogonalLoop=1;jettySize=auto;html=1;exitX=0.5;exitY=1;exitDx=0;exitDy=0;fontFamily=Courier New;fontSize=12;fontColor=default;" edge="1" parent="1" source="I3rq7wT1LuyZRPo9B95B-73">
          <mxGeometry relative="1" as="geometry">
            <mxPoint x="446" y="1287" as="targetPoint" />
          </mxGeometry>
        </mxCell>
        <mxCell id="I3rq7wT1LuyZRPo9B95B-73" value="&lt;font face=&quot;Courier New&quot;&gt;&lt;b&gt;veh.accion = llegando o veh.accion = esperando&lt;br&gt;&lt;/b&gt;&lt;/font&gt;" style="rounded=0;whiteSpace=wrap;html=1;fillColor=#d5e8d4;strokeColor=#82b366;" vertex="1" parent="1">
          <mxGeometry x="441" y="1217" width="210" height="30" as="geometry" />
        </mxCell>
        <mxCell id="I3rq7wT1LuyZRPo9B95B-75" style="edgeStyle=orthogonalEdgeStyle;rounded=0;orthogonalLoop=1;jettySize=auto;html=1;exitX=0.5;exitY=1;exitDx=0;exitDy=0;fontFamily=Courier New;fontSize=12;fontColor=default;" edge="1" parent="1" source="I3rq7wT1LuyZRPo9B95B-76" target="I3rq7wT1LuyZRPo9B95B-80">
          <mxGeometry relative="1" as="geometry" />
        </mxCell>
        <mxCell id="I3rq7wT1LuyZRPo9B95B-76" value="&lt;b style=&quot;border-color: var(--border-color);&quot;&gt;sem.id =&amp;nbsp;&lt;/b&gt;&lt;b&gt;veh.idSem&lt;/b&gt;" style="rounded=0;whiteSpace=wrap;html=1;align=center;verticalAlign=middle;fontFamily=Courier New;fontSize=12;fillColor=#ffe6cc;strokeColor=#d79b00;" vertex="1" parent="1">
          <mxGeometry x="366" y="1287" width="150" height="30" as="geometry" />
        </mxCell>
        <mxCell id="I3rq7wT1LuyZRPo9B95B-77" value="&lt;b&gt;v.id = sem.idVia&lt;/b&gt;" style="rounded=0;whiteSpace=wrap;html=1;align=center;verticalAlign=middle;fontFamily=Courier New;fontSize=12;fillColor=#ffe6cc;strokeColor=#d79b00;" vertex="1" parent="1">
          <mxGeometry x="136" y="1287" width="170" height="30" as="geometry" />
        </mxCell>
        <mxCell id="I3rq7wT1LuyZRPo9B95B-78" style="edgeStyle=orthogonalEdgeStyle;rounded=0;orthogonalLoop=1;jettySize=auto;html=1;exitX=0.5;exitY=1;exitDx=0;exitDy=0;entryX=0.353;entryY=-0.1;entryDx=0;entryDy=0;entryPerimeter=0;fontFamily=Courier New;fontSize=12;fontColor=default;" edge="1" parent="1" source="I3rq7wT1LuyZRPo9B95B-68" target="I3rq7wT1LuyZRPo9B95B-77">
          <mxGeometry relative="1" as="geometry" />
        </mxCell>
        <mxCell id="I3rq7wT1LuyZRPo9B95B-79" value="" style="endArrow=none;dashed=1;html=1;rounded=0;fontFamily=Courier New;fontSize=12;fontColor=default;fillColor=#f8cecc;strokeColor=#b85450;" edge="1" parent="1">
          <mxGeometry width="50" height="50" relative="1" as="geometry">
            <mxPoint x="-74" y="1257" as="sourcePoint" />
            <mxPoint x="736" y="1257" as="targetPoint" />
          </mxGeometry>
        </mxCell>
        <mxCell id="I3rq7wT1LuyZRPo9B95B-80" value="&lt;b&gt;+-Vehiculo(accion(cruzando))&lt;br&gt;+-Semaforo(numVeh(numVeh + 1))&lt;br&gt;&lt;/b&gt;" style="rounded=0;whiteSpace=wrap;html=1;align=center;verticalAlign=middle;fontFamily=Courier New;fontSize=12;fillColor=#e1d5e7;strokeColor=#9673a6;" vertex="1" parent="1">
          <mxGeometry x="168.5" y="1387" width="355" height="60" as="geometry" />
        </mxCell>
        <mxCell id="I3rq7wT1LuyZRPo9B95B-81" style="edgeStyle=orthogonalEdgeStyle;rounded=0;orthogonalLoop=1;jettySize=auto;html=1;exitX=0.5;exitY=1;exitDx=0;exitDy=0;entryX=0.444;entryY=0;entryDx=0;entryDy=0;entryPerimeter=0;fontFamily=Courier New;fontSize=12;fontColor=default;" edge="1" parent="1" source="I3rq7wT1LuyZRPo9B95B-77" target="I3rq7wT1LuyZRPo9B95B-80">
          <mxGeometry relative="1" as="geometry" />
        </mxCell>
        <mxCell id="I3rq7wT1LuyZRPo9B95B-82" value="&lt;font face=&quot;Verdana&quot;&gt;Red de Enlace&lt;/font&gt;" style="text;html=1;strokeColor=none;fillColor=none;align=center;verticalAlign=middle;whiteSpace=wrap;rounded=0;fontSize=12;fontFamily=Courier New;fontColor=default;" vertex="1" parent="1">
          <mxGeometry x="-104" y="1277" width="190" height="30" as="geometry" />
        </mxCell>
        <mxCell id="I3rq7wT1LuyZRPo9B95B-83" value="&lt;font face=&quot;Verdana&quot;&gt;Red de Patrones&lt;/font&gt;" style="text;html=1;strokeColor=none;fillColor=none;align=center;verticalAlign=middle;whiteSpace=wrap;rounded=0;fontSize=12;fontFamily=Courier New;fontColor=default;" vertex="1" parent="1">
          <mxGeometry x="-104" y="1197" width="190" height="30" as="geometry" />
        </mxCell>
        <mxCell id="I3rq7wT1LuyZRPo9B95B-84" value="&lt;b&gt;cruzando&lt;/b&gt;" style="text;html=1;strokeColor=none;fillColor=none;align=center;verticalAlign=middle;whiteSpace=wrap;rounded=0;fontFamily=Courier New;" vertex="1" parent="1">
          <mxGeometry x="276" y="1107" width="150" height="30" as="geometry" />
        </mxCell>
        <mxCell id="I3rq7wT1LuyZRPo9B95B-85" value="&lt;b&gt;cruzando&lt;/b&gt;" style="text;html=1;strokeColor=none;fillColor=none;align=center;verticalAlign=middle;whiteSpace=wrap;rounded=0;fontFamily=Courier New;" vertex="1" parent="1">
          <mxGeometry x="463.5" y="1107" width="150" height="30" as="geometry" />
        </mxCell>
      </root>
    </mxGraphModel>
  </diagram>
</mxfile>
